<svg width="15" height="16" viewBox="0 0 15 16" fill="none" xmlns="http://www.w3.org/2000/svg">
<path d="M6.23438 7.27344L0.234375 1.27344C-0.078125 0.992188 -0.078125 0.523438 0.234375 0.210938C0.515625 -0.0703125 0.984375 -0.0703125 1.29688 0.210938L6.76562 5.71094L12.2344 0.242188C12.5156 -0.0703125 12.9844 -0.0703125 13.2969 0.242188C13.5781 0.523438 13.5781 0.992188 13.2969 1.27344L7.26562 7.27344C6.98438 7.58594 6.51562 7.58594 6.23438 7.27344Z" fill="black"/>
<path d="M6.30469 15.2188L0.304688 9.21875C-0.101562 8.84375 -0.101562 8.1875 0.304688 7.8125C0.679688 7.40625 1.33594 7.40625 1.71094 7.8125L7.02344 13.0938L12.3047 7.8125C12.6797 7.40625 13.3359 7.40625 13.7109 7.8125C14.1172 8.1875 14.1172 8.84375 13.7109 9.21875L7.71094 15.2188C7.33594 15.625 6.67969 15.625 6.30469 15.2188Z" fill="black"/>
</svg>
