<svg width="23" height="24" viewBox="0 0 23 24" fill="none" xmlns="http://www.w3.org/2000/svg">
<path d="M2.67384 5.95312C2.39259 6.09375 2.25197 6.32812 2.25197 6.5625C2.25197 10.875 4.03322 18.2344 10.9707 21.5625C11.1113 21.6562 11.3457 21.6562 11.4863 21.5625C18.4238 18.2812 20.2051 10.875 20.252 6.5625C20.252 6.32812 20.0645 6.09375 19.8301 5.95312L11.252 2.34375L2.67384 5.95312ZM20.6738 3.89062C21.7051 4.35938 22.502 5.34375 22.502 6.5625C22.4551 11.25 20.5332 19.7344 12.4707 23.625C11.6738 24 10.7832 24 9.98634 23.625C1.92384 19.7344 0.00196639 11.25 0.00196639 6.5625C-0.0449086 5.34375 0.751966 4.35938 1.78322 3.89062L10.5957 0.140625C10.7832 0.046875 11.0176 0 11.252 0C11.4395 0 11.6738 0.046875 11.8613 0.140625L20.6738 3.89062ZM16.5488 9.79688L10.5488 15.7969C10.0801 16.2656 9.37697 16.2656 8.95509 15.7969L5.95509 12.7969C5.48634 12.375 5.48634 11.6719 5.95509 11.25C6.37697 10.7812 7.08009 10.7812 7.54884 11.25L9.75197 13.4531L14.9551 8.25C15.377 7.78125 16.0801 7.78125 16.5488 8.25C16.9707 8.67188 16.9707 9.375 16.5488 9.79688Z" fill="#CD9733"/>
</svg>
