<svg width="24" height="24" viewBox="0 0 24 24" fill="none" xmlns="http://www.w3.org/2000/svg">
<path d="M12.0234 2.25C8.50781 2.25 5.32031 4.125 3.53906 7.125C1.80469 10.1719 1.80469 13.875 3.53906 16.875C5.32031 19.9219 8.50781 21.75 12.0234 21.75C15.4922 21.75 18.6797 19.9219 20.4609 16.875C22.1953 13.875 22.1953 10.1719 20.4609 7.125C18.6797 4.125 15.4922 2.25 12.0234 2.25ZM12.0234 24C7.71094 24 3.77344 21.75 1.61719 18C-0.539062 14.2969 -0.539062 9.75 1.61719 6C3.77344 2.29688 7.71094 0 12.0234 0C16.2891 0 20.2266 2.29688 22.3828 6C24.5391 9.75 24.5391 14.2969 22.3828 18C20.2266 21.75 16.2891 24 12.0234 24ZM17.3203 9.79688L11.3203 15.7969C10.8516 16.2656 10.1484 16.2656 9.72656 15.7969L6.72656 12.7969C6.25781 12.375 6.25781 11.6719 6.72656 11.25C7.14844 10.7812 7.85156 10.7812 8.32031 11.25L10.5234 13.4531L15.7266 8.25C16.1484 7.78125 16.8516 7.78125 17.3203 8.25C17.7422 8.67188 17.7422 9.375 17.3203 9.79688Z" fill="#A27FC1"/>
</svg>
