<svg width="30" height="24" viewBox="0 0 30 24" fill="none" xmlns="http://www.w3.org/2000/svg">
<path d="M18.7031 0.0529667C19.2656 0.193592 19.5938 0.849842 19.4062 1.45922L12.6562 23.2092C12.5156 23.7717 11.8594 24.0998 11.25 23.9123C10.6875 23.7248 10.3594 23.1155 10.5469 22.5061L17.2969 0.756092C17.4844 0.193592 18.0938 -0.134533 18.7031 0.0529667ZM22.0312 5.58422C22.4531 5.11547 23.1562 5.11547 23.625 5.53734L29.625 11.1623C29.8594 11.3498 30 11.678 30 11.9592C30 12.2873 29.8594 12.5686 29.625 12.803L23.625 18.428C23.1562 18.8498 22.4531 18.803 22.0312 18.3811C21.6094 17.9123 21.6094 17.2092 22.0781 16.7873L27.1875 11.9592L22.0781 7.17797C21.6094 6.75609 21.6094 6.05297 22.0312 5.58422ZM7.92188 5.58422C8.34375 6.05297 8.34375 6.75609 7.875 7.17797L2.76562 11.9592L7.875 16.7873C8.34375 17.2092 8.34375 17.9123 7.92188 18.3811C7.5 18.8498 6.79688 18.8498 6.32812 18.428L0.328125 12.803C0.09375 12.5686 0 12.2873 0 11.9592C0 11.678 0.09375 11.3498 0.328125 11.1623L6.32812 5.53734C6.79688 5.11547 7.5 5.11547 7.92188 5.58422Z" fill="#C383B5"/>
</svg>
