<svg width="31" height="24" viewBox="0 0 31 24" fill="none" xmlns="http://www.w3.org/2000/svg">
<path d="M4.21875 14.5312C4.17188 14.625 4.125 14.7188 4.03125 14.7656C3.9375 15 3.79688 15.1875 3.70312 15.4219C4.5 15.2344 5.25 14.9062 6 14.5781C6.23438 14.4844 6.42188 14.3906 6.60938 14.2969C7.07812 14.0625 7.54688 14.0156 8.0625 14.1094C8.625 14.2031 9.1875 14.25 9.84375 14.25C14.3438 14.25 17.3438 11.25 17.3438 8.25C17.3438 5.29688 14.3438 2.25 9.84375 2.25C5.29688 2.25 2.34375 5.29688 2.34375 8.25C2.34375 9.5625 2.85938 10.8281 3.84375 11.9062C4.54688 12.6094 4.6875 13.6406 4.21875 14.5312ZM9.84375 16.5C9.04688 16.5 8.34375 16.4531 7.59375 16.3125C7.40625 16.4062 7.17188 16.5469 6.9375 16.6406C5.25 17.3906 3.23438 18 1.21875 18C0.75 18 0.328125 17.7656 0.140625 17.3438C0 16.9219 0.046875 16.4531 0.375 16.125C1.03125 15.375 1.59375 14.5312 2.10938 13.6875C2.15625 13.5938 2.20312 13.5 2.20312 13.4531C0.890625 12.0469 0.09375 10.2188 0.09375 8.25C0.09375 3.70312 4.45312 0 9.84375 0C15.1875 0 19.5938 3.70312 19.5938 8.25C19.5938 12.8438 15.1875 16.5 9.84375 16.5ZM20.3438 22.5C16.5 22.5 13.1719 20.625 11.5781 17.9062C12.375 17.7656 13.1719 17.5781 13.9219 17.3438C15.1406 19.0312 17.4375 20.25 20.2969 20.25C20.9062 20.25 21.5156 20.2031 22.0781 20.1094C22.5938 20.0156 23.0625 20.0625 23.5312 20.2969C23.7188 20.3906 23.9062 20.4844 24.1406 20.5781C24.8906 20.9062 25.6406 21.1875 26.4375 21.4219C26.3438 21.1875 26.2031 21 26.1094 20.7656C26.0625 20.6719 25.9688 20.5781 25.9219 20.4844C25.5 19.6406 25.6406 18.6094 26.2969 17.9062C27.2812 16.8281 27.8438 15.5625 27.8438 14.25C27.8438 11.4844 25.1719 8.625 21.0938 8.29688V8.25C21.0938 7.5 20.9531 6.75 20.7656 6.04688C25.9688 6.23438 30.0938 9.84375 30.0938 14.25C30.0938 16.2188 29.25 18.0469 27.9375 19.4531C27.9375 19.5469 27.9844 19.5938 28.0312 19.6875C28.5469 20.5312 29.1094 21.375 29.7656 22.125C30.0938 22.4531 30.1406 22.9219 30 23.3438C29.8125 23.7656 29.3906 24 28.9688 24C26.9531 24 24.8906 23.3906 23.2031 22.6406C22.9688 22.5469 22.7344 22.4062 22.5469 22.3125C21.7969 22.4531 21.0938 22.5 20.3438 22.5Z" fill="#CD9733"/>
</svg>
