<svg width="25" height="20" viewBox="0 0 25 20" fill="none" xmlns="http://www.w3.org/2000/svg">
<path d="M7.3125 2.01562V1.96875L3.9375 5.71875C3.75 5.95312 3.46875 6.09375 3.14062 6.09375C2.85938 6.14062 2.53125 6 2.34375 5.76562L0.46875 3.89062C0 3.46875 0 2.76562 0.46875 2.29688C0.890625 1.875 1.59375 1.875 2.0625 2.29688L3.09375 3.375L5.67188 0.46875C6.09375 0.046875 6.79688 0 7.26562 0.421875C7.6875 0.84375 7.73438 1.54688 7.3125 2.01562ZM7.3125 9.51562V9.46875L3.9375 13.2188C3.75 13.4531 3.46875 13.5938 3.14062 13.5938C2.85938 13.6406 2.53125 13.5 2.34375 13.2656L0.46875 11.3906C0 10.9688 0 10.2656 0.46875 9.79688C0.890625 9.375 1.59375 9.375 2.0625 9.79688L3.09375 10.875L5.67188 7.96875C6.09375 7.54688 6.79688 7.5 7.26562 7.92188C7.6875 8.34375 7.73438 9.04688 7.3125 9.51562ZM10.2656 4.21875C9.60938 4.21875 9.14062 3.75 9.14062 3.09375C9.14062 2.48438 9.60938 1.96875 10.2656 1.96875H23.0156C23.625 1.96875 24.1406 2.48438 24.1406 3.09375C24.1406 3.75 23.625 4.21875 23.0156 4.21875H10.2656ZM9.14062 10.5938C9.14062 9.98438 9.60938 9.46875 10.2656 9.46875H23.0156C23.625 9.46875 24.1406 9.98438 24.1406 10.5938C24.1406 11.25 23.625 11.7188 23.0156 11.7188H10.2656C9.60938 11.7188 9.14062 11.25 9.14062 10.5938ZM7.64062 18.0938C7.64062 17.4844 8.10938 16.9688 8.76562 16.9688H23.0156C23.625 16.9688 24.1406 17.4844 24.1406 18.0938C24.1406 18.75 23.625 19.2188 23.0156 19.2188H8.76562C8.10938 19.2188 7.64062 18.75 7.64062 18.0938ZM4.64062 18.0938C4.64062 18.9375 3.9375 19.5938 3.14062 19.5938C2.29688 19.5938 1.64062 18.9375 1.64062 18.0938C1.64062 17.2969 2.29688 16.5938 3.14062 16.5938C3.9375 16.5938 4.64062 17.2969 4.64062 18.0938Z" fill="#868BDE"/>
</svg>
