<svg width="129" height="44" viewBox="0 0 129 44" fill="none" xmlns="http://www.w3.org/2000/svg">
<g clip-path="url(#clip0_207_3732)">
<path d="M108.589 35.9969C108.538 35.9969 108.478 35.9969 108.419 35.9969C107.519 35.9375 106.756 35.4114 106.374 34.5881L106.34 34.5117C106.136 34.0789 105.763 34.011 105.61 34.0025C105.457 33.9856 105.075 34.011 104.829 34.4014L104.523 34.8767C104.031 35.6405 103.208 36.0648 102.308 35.9969C101.409 35.9375 100.645 35.4029 100.263 34.5796L100.229 34.5033C100.034 34.0789 99.652 34.0025 99.4993 33.9941C99.355 33.9941 98.9646 33.9941 98.71 34.3929L98.396 34.8767C97.9037 35.6405 97.0635 36.0564 96.1809 35.9885C95.2813 35.9291 94.5175 35.3944 94.1356 34.5712C93.9064 34.0789 93.533 34.0025 93.3802 33.9941C93.2275 33.9771 92.8456 33.9941 92.591 34.3929L92.277 34.8767C91.7847 35.6405 90.9445 36.0479 90.0619 35.9885C89.1623 35.9206 88.3985 35.3944 88.0166 34.5627C87.7959 34.0789 87.414 34.0025 87.2612 33.9941C87.1085 33.9856 86.7266 33.9941 86.472 34.3929L86.1579 34.8852C85.6657 35.649 84.8255 36.0564 83.9344 35.9885C83.0348 35.9206 82.271 35.3859 81.8975 34.5627C81.6769 34.0874 81.3035 34.011 81.1507 34.0025C80.9979 33.9856 80.616 34.0025 80.3614 34.4014L80.0389 34.8937C79.5467 35.649 78.7065 36.0733 77.8154 35.9969C76.9158 35.9291 76.152 35.3944 75.7785 34.5627C75.5664 34.0874 75.1845 34.0195 75.0317 34.0025C74.8789 33.9856 74.497 34.0025 74.2424 34.3929L73.9114 34.8937C73.4107 35.649 72.579 36.0648 71.6879 35.9885C70.7883 35.9206 70.0329 35.3774 69.651 34.5457C69.4389 34.0789 69.0654 34.0025 68.9127 33.9941C68.7514 33.9856 68.378 33.9941 68.1234 34.3844L67.7924 34.8852C67.2917 35.6405 66.46 36.0564 65.5689 35.98C64.6693 35.9036 63.9139 35.3689 63.5405 34.5372C63.3368 34.0789 62.9549 34.0025 62.8022 33.9941C62.6494 33.9856 62.2675 33.9941 62.0129 34.3844L61.6819 34.8937C61.1812 35.649 60.341 36.0479 59.4583 35.98C58.5587 35.9036 57.8034 35.3604 57.43 34.5287C57.2263 34.0789 56.8529 34.0025 56.7001 33.9856C56.5474 33.9771 56.1654 33.9856 55.9108 34.376L55.5714 34.8852C55.0706 35.6405 54.222 36.0479 53.3393 35.9715C52.4397 35.8951 51.6844 35.3519 51.311 34.5202C51.1158 34.0789 50.7339 34.0025 50.5811 33.9856C50.4283 33.9686 50.0464 33.9856 49.7918 34.376L49.4524 34.8937C48.9516 35.649 48.1029 36.0479 47.2203 35.9715C46.3207 35.8951 45.5654 35.3519 45.2004 34.5117C45.0052 34.0789 44.6318 33.9941 44.4791 33.9856C44.3263 33.9771 43.9444 33.9856 43.6898 34.376L42.3828 33.5018C42.8835 32.7465 43.7152 32.3561 44.6149 32.424C45.5145 32.5004 46.2698 33.052 46.6347 33.8837C46.8299 34.3166 47.2033 34.3929 47.3561 34.4099C47.5004 34.4269 47.8908 34.4099 48.1454 34.0195L48.4849 33.5018C48.9856 32.7465 49.8173 32.3391 50.7169 32.424C51.6165 32.5004 52.3718 33.0435 52.7452 33.8752C52.9404 34.3166 53.3224 34.3929 53.4751 34.4099C53.6279 34.4269 54.0098 34.4099 54.2644 34.0195L54.6039 33.5103C55.1046 32.755 55.9448 32.3561 56.8274 32.424C57.727 32.5004 58.4824 33.0435 58.8558 33.8752C59.0595 34.325 59.4329 34.4014 59.5856 34.4184C59.7384 34.4269 60.1203 34.4184 60.3749 34.028L60.7059 33.5188C61.2066 32.7635 62.0299 32.3476 62.9295 32.4325C63.8291 32.5089 64.5844 33.0435 64.9578 33.8752C65.1615 34.3335 65.5434 34.4099 65.6962 34.4184C65.8489 34.4269 66.2308 34.4184 66.4854 34.028L66.8164 33.5273C67.3172 32.7719 68.1404 32.3646 69.04 32.4325C69.9396 32.5004 70.6949 33.0435 71.0683 33.8752C71.2805 34.342 71.6539 34.4184 71.8067 34.4269C71.9595 34.4354 72.3414 34.4269 72.596 34.028L72.927 33.5273C73.4192 32.7719 74.2509 32.3561 75.1505 32.4325C76.0501 32.5004 76.8054 33.035 77.1873 33.8668C77.3995 34.342 77.7814 34.4099 77.9342 34.4269C78.087 34.4439 78.4689 34.4269 78.7235 34.028L79.046 33.5358C79.5382 32.7804 80.3699 32.3731 81.261 32.4325C82.1606 32.5004 82.916 33.035 83.2979 33.8583C83.5185 34.342 83.892 34.4099 84.0447 34.4184C84.1975 34.4184 84.5794 34.4184 84.834 34.0195L85.148 33.5273C85.6402 32.7719 86.4635 32.3476 87.3631 32.424C88.2627 32.4919 89.0265 33.0181 89.3999 33.8498C89.6206 34.3335 90.0025 34.4099 90.1553 34.4184C90.308 34.4354 90.6899 34.4184 90.9445 34.0195L91.2585 33.5358C91.7508 32.7719 92.5825 32.3561 93.4736 32.424C94.3732 32.4834 95.137 33.0181 95.5189 33.8413C95.7481 34.3335 96.1215 34.4099 96.2827 34.4184C96.4355 34.4354 96.8174 34.4184 97.072 34.0195L97.386 33.5358C97.8783 32.7719 98.7185 32.3561 99.6011 32.424C100.501 32.4834 101.265 33.0181 101.646 33.8413L101.68 33.9177C101.876 34.342 102.257 34.4184 102.41 34.4269C102.563 34.4354 102.945 34.4269 103.2 34.028L103.505 33.5527C103.997 32.7889 104.812 32.3646 105.712 32.4325C106.611 32.4919 107.375 33.0181 107.757 33.8413L107.791 33.9177C107.995 34.3505 108.368 34.4184 108.521 34.4269C108.682 34.4269 109.055 34.4184 109.31 34.0195L109.616 33.5442C110.108 32.7804 110.94 32.3561 111.822 32.424C112.722 32.4834 113.486 33.0096 113.867 33.8328L112.45 34.5033C112.246 34.0704 111.873 34.0025 111.72 33.9941C111.568 33.9771 111.186 33.9941 110.94 34.4014L110.634 34.8767C110.176 35.5896 109.42 36.0054 108.589 36.0054V35.9969Z" fill="#FC86E3"/>
<path d="M23.8129 10.8929V11.2069C23.8129 11.5464 23.7875 11.75 23.7875 11.75L23.4989 11.7755C22.472 11.9198 21.844 13.6256 21.844 16.1632V23.8608C21.844 26.3983 22.472 28.1042 23.4989 28.2485L23.7875 28.2739C23.7875 28.2739 23.8129 28.4776 23.8129 28.8171V29.1311H15.5977V28.8171C15.5977 28.4776 15.6231 28.2739 15.6231 28.2739L15.9117 28.2485C16.9386 28.1042 17.5666 26.3983 17.5666 23.8608V16.1632C17.5666 13.6256 16.9386 11.9198 15.9117 11.7755L15.6231 11.75C15.6231 11.75 15.5977 11.5464 15.5977 11.2069V10.8929H23.8044H23.8129Z" fill="#091E3D"/>
<path d="M23.8139 10.8929V11.2069C23.8139 11.5464 23.7884 11.75 23.7884 11.75L23.4999 11.7755C22.473 11.9198 21.8449 13.6256 21.8449 16.1632V23.8608C21.8449 26.3983 22.473 28.1042 23.4999 28.2485L23.7884 28.2739C23.7884 28.2739 23.8139 28.4776 23.8139 28.8171V29.1311H15.5986V28.8171C15.5986 28.4776 15.6241 28.2739 15.6241 28.2739L15.9126 28.2485C16.9395 28.1042 17.5676 26.3983 17.5676 23.8608V16.1632C17.5676 13.6256 16.9395 11.9198 15.9126 11.7755L15.6241 11.75C15.6241 11.75 15.5986 11.5464 15.5986 11.2069V10.8929H23.8054M23.8139 10.7825H15.5986C15.5392 10.7825 15.4883 10.8335 15.4883 10.8929V11.2069C15.4883 11.5548 15.5137 11.7585 15.5137 11.767C15.5137 11.8179 15.5647 11.8519 15.6071 11.8604L15.8956 11.8858C16.8377 12.0131 17.4487 13.702 17.4487 16.1717V23.8693C17.4487 26.3389 16.8377 28.0193 15.8872 28.1551L15.6071 28.1806C15.5562 28.1806 15.5137 28.223 15.5137 28.2739C15.5137 28.2824 15.4883 28.4861 15.4883 28.8341V29.1481C15.4883 29.2075 15.5392 29.2584 15.5986 29.2584H23.8054C23.8648 29.2584 23.9157 29.2075 23.9157 29.1481V28.8341C23.9157 28.4861 23.8903 28.2824 23.8903 28.2739C23.8903 28.223 23.8393 28.1891 23.7969 28.1806L23.5083 28.1551C22.5663 28.0278 21.9553 26.3389 21.9553 23.8693V16.1717C21.9553 13.702 22.5663 12.0216 23.5168 11.8858L23.7969 11.8604C23.8478 11.8604 23.8903 11.8179 23.8903 11.767C23.8903 11.767 23.9157 11.5548 23.9157 11.2069V10.8929C23.9157 10.8335 23.8648 10.7825 23.8054 10.7825H23.8139Z" fill="#091E3D"/>
<path d="M23.8126 28.2824L24.0672 28.2569C25.1535 28.1127 25.7476 26.2625 25.7476 23.6656C25.7476 20.135 25.493 19.3882 24.0672 18.6753L23.8126 18.531C23.8126 18.531 23.7871 18.4207 23.7871 18.2425L28.9471 16.1292H29.7449V18.0982C30.4832 17.0713 32.2824 15.985 34.5909 15.985C36.8993 15.985 37.6716 17.6993 37.6716 20.3727V25.5581C37.6716 27.9854 37.731 28.6983 37.731 28.9783C37.731 30.2344 37.7565 33.0266 39.5302 33.0266C40.6674 33.0266 41.4397 31.8554 42.0423 31.2273C42.3563 30.8879 42.7807 30.7436 43.2135 30.7436C44.0113 30.7436 44.809 31.2528 44.9533 32.0845C45.157 33.5952 44.2149 34.5117 42.7552 34.8767C42.1526 35.021 41.4991 35.1058 40.8457 35.1058C39.5387 35.1058 38.1978 34.7918 37.1963 34.1383C36.424 33.6291 33.6658 32.2033 33.6658 27.8666V20.797C33.6658 19.3712 32.9529 17.7502 31.7817 17.7502C31.2131 17.7502 30.5257 18.1746 29.7618 19.2609V23.8523C29.7618 26.3898 30.3899 28.1296 31.3828 28.24L31.6374 28.2654V29.1226H23.7956V28.8086C23.7956 28.4691 23.8211 28.2654 23.8211 28.2654L23.8126 28.2824Z" fill="#091E3D"/>
<path d="M34.5918 15.9935C36.8408 15.9935 37.6725 17.7078 37.6725 20.3812V25.5666C37.6725 27.9939 37.7319 28.7067 37.7319 28.9868C37.7319 30.2429 37.7574 33.035 39.5312 33.035C40.6684 33.035 41.4407 31.8639 42.0433 31.2358C42.3573 30.8964 42.7816 30.7521 43.2144 30.7521C44.0122 30.7521 44.81 31.2613 44.9543 32.093C45.1579 33.6037 44.2159 34.5202 42.7562 34.8852C42.1536 35.0294 41.5001 35.1143 40.8466 35.1143C39.5396 35.1143 38.1987 34.8003 37.1973 34.1468C36.425 33.6376 33.6667 32.2118 33.6667 27.875V20.8055C33.6667 19.3797 32.9539 17.7587 31.7827 17.7587C31.2141 17.7587 30.5266 18.1831 29.7628 19.2694V23.8608C29.7628 26.3983 30.3908 28.1381 31.3838 28.2485L31.6384 28.2739V29.1311H23.7966V28.8171C23.7966 28.4776 23.822 28.2739 23.822 28.2739L24.0766 28.2485C25.1629 28.1042 25.757 26.2541 25.757 23.6571C25.757 20.1266 25.5024 19.3797 24.0766 18.6668L23.822 18.5225C23.822 18.5225 23.7966 18.4122 23.7966 18.234L28.9566 16.1208H29.7543V18.0897C30.4927 17.0628 32.2919 15.9765 34.6003 15.9765M34.5918 15.8916C32.4362 15.8916 30.7133 16.8167 29.8562 17.8012V16.1462C29.8562 16.0868 29.8052 16.0359 29.7458 16.0359H28.9481C28.9481 16.0359 28.9226 16.0359 28.9056 16.0359L23.7456 18.1491C23.7456 18.1491 23.6777 18.2085 23.6777 18.251C23.6777 18.4292 23.7117 18.5565 23.7117 18.565C23.7117 18.5904 23.7371 18.6159 23.7626 18.6329L24.0172 18.7771C25.4006 19.4731 25.6467 20.2029 25.6467 23.6741C25.6467 26.3135 25.0356 28.0278 24.0596 28.1551L23.805 28.1806C23.7541 28.1806 23.7202 28.223 23.7117 28.2739C23.7117 28.2824 23.6862 28.4861 23.6862 28.8341V29.1481C23.6862 29.2075 23.7371 29.2584 23.7966 29.2584H31.6384C31.6978 29.2584 31.7487 29.2075 31.7487 29.1481V28.2909C31.7487 28.2315 31.7063 28.1891 31.6554 28.1806L31.4008 28.1551C30.4757 28.0533 29.8731 26.3644 29.8731 23.8692V19.3118C30.5436 18.3698 31.2056 17.8775 31.7912 17.8775C32.852 17.8775 33.5649 19.3967 33.5649 20.8225V27.892C33.5649 31.9827 36.0346 33.5443 36.9596 34.1298C37.0275 34.1723 37.0954 34.2147 37.1464 34.2487C38.1139 34.8852 39.4293 35.2331 40.8551 35.2331C41.4831 35.2331 42.1536 35.1567 42.7901 35.004C44.4535 34.5796 45.2598 33.5442 45.0646 32.093C44.9203 31.2698 44.131 30.6587 43.2144 30.6587C42.7137 30.6587 42.2724 30.8454 41.9669 31.1764C41.8566 31.2868 41.7462 31.4141 41.6274 31.5583C41.0927 32.1779 40.4223 32.9417 39.5396 32.9417C37.8508 32.9417 37.8508 30.0816 37.8508 29.0038C37.8508 28.9274 37.8508 28.8256 37.8423 28.6728C37.8253 28.223 37.7914 27.3828 37.7914 25.5751V20.3896C37.7914 17.3598 36.7475 15.8916 34.6003 15.8916H34.5918Z" fill="#091E3D"/>
<path d="M38.1309 28.8256C38.1309 28.4861 38.1563 28.2824 38.1563 28.2824L38.4449 28.2569C39.4718 28.1127 40.0998 26.4068 40.0998 23.8693V16.1717C40.0998 13.6341 39.4718 11.9283 38.4449 11.784L38.1563 11.7585C38.1563 11.7585 38.1309 11.5548 38.1309 11.2154V10.9014H47.3645C51.7862 10.9014 54.6038 12.9806 54.6038 16.2056C54.6038 19.4306 51.5825 21.6202 46.8214 21.6202H44.5724V23.8693C44.5724 26.4068 45.2259 28.1127 46.2273 28.2569L46.5159 28.2824C46.5159 28.2824 46.5413 28.4861 46.5413 28.8256V29.1396H38.1309V28.8256ZM44.5724 20.4745H46.8214C48.7309 20.4745 49.9276 18.7941 49.9276 16.1971C49.9276 13.6002 48.9261 12.0386 47.3645 12.0386H44.5724V20.4745Z" fill="#091E3D"/>
<path d="M47.3655 10.8929C51.7871 10.8929 54.6048 12.9721 54.6048 16.1971C54.6048 19.4221 51.5835 21.6118 46.8223 21.6118H44.5733V23.8608C44.5733 26.3983 45.2268 28.1042 46.2283 28.2485L46.5168 28.2739C46.5168 28.2739 46.5423 28.4776 46.5423 28.8171V29.1311H38.1318V28.8171C38.1318 28.4776 38.1573 28.2739 38.1573 28.2739L38.4458 28.2485C39.4727 28.1042 40.1008 26.3983 40.1008 23.8608V16.1632C40.1008 13.6256 39.4727 11.9198 38.4458 11.7755L38.1573 11.75C38.1573 11.75 38.1318 11.5464 38.1318 11.2069V10.8929H47.3655ZM44.5733 20.4745H46.8223C48.7319 20.4745 49.9285 18.7941 49.9285 16.1971C49.9285 13.6002 48.9271 12.0386 47.3655 12.0386H44.5733V20.4745ZM47.3655 10.7825H38.1318C38.0724 10.7825 38.0215 10.8335 38.0215 10.8929V11.2069C38.0215 11.5548 38.0469 11.7585 38.0469 11.767C38.0469 11.8179 38.0979 11.8519 38.1403 11.8604L38.4289 11.8858C39.3709 12.0131 39.9819 13.702 39.9819 16.1717V23.8693C39.9819 26.3389 39.3709 28.0193 38.4204 28.1551L38.1403 28.1806C38.0894 28.1806 38.0469 28.223 38.0469 28.2739C38.0469 28.2824 38.0215 28.4861 38.0215 28.8341V29.1481C38.0215 29.2075 38.0724 29.2584 38.1318 29.2584H46.5423C46.6017 29.2584 46.6526 29.2075 46.6526 29.1481V28.8341C46.6526 28.4861 46.6271 28.2824 46.6271 28.2739C46.6271 28.223 46.5762 28.1891 46.5338 28.1806L46.2452 28.1551C45.3202 28.0193 44.6921 26.305 44.6921 23.8693V21.7221H46.8393C51.6344 21.7221 54.7321 19.5494 54.7321 16.1971C54.7321 12.8448 51.8466 10.7825 47.3825 10.7825H47.3655ZM44.6837 12.1404H47.3655C48.8592 12.1404 49.8182 13.7275 49.8182 16.1971C49.8182 18.6668 48.6385 20.3642 46.8223 20.3642H44.6752V12.1404H44.6837Z" fill="#091E3D"/>
<path d="M53.8652 22.6387C53.8652 18.5904 56.6574 15.9935 61.0791 15.9935C65.5007 15.9935 68.2335 18.5904 68.2335 22.6387C68.2335 26.6869 65.4413 29.2839 61.0791 29.2839C56.7168 29.2839 53.8652 26.6869 53.8652 22.6387ZM58.2529 22.6387C58.2529 26.1183 59.3647 28.3418 61.0791 28.3418C62.7934 28.3418 63.8967 26.1183 63.8967 22.6387C63.8967 19.1591 62.7849 16.9355 61.0791 16.9355C59.3732 16.9355 58.2529 19.1591 58.2529 22.6387Z" fill="#091E3D"/>
<path d="M61.08 15.9935C65.4422 15.9935 68.2344 18.5904 68.2344 22.6387C68.2344 26.6869 65.4422 29.2839 61.08 29.2839C56.7178 29.2839 53.8662 26.6869 53.8662 22.6387C53.8662 18.5904 56.6584 15.9935 61.08 15.9935ZM61.08 28.3418C62.7943 28.3418 63.8976 26.1183 63.8976 22.6387C63.8976 19.1591 62.7859 16.9355 61.08 16.9355C59.3741 16.9355 58.2539 19.1591 58.2539 22.6387C58.2539 26.1183 59.3657 28.3418 61.08 28.3418ZM61.08 15.8916C56.6329 15.8916 53.7559 18.5395 53.7559 22.6387C53.7559 26.7378 56.6329 29.3857 61.08 29.3857C65.5271 29.3857 68.3447 26.7378 68.3447 22.6387C68.3447 18.5395 65.4932 15.8916 61.08 15.8916ZM61.08 28.2315C59.4336 28.2315 58.3642 26.0334 58.3642 22.6387C58.3642 19.2439 59.4336 17.0458 61.08 17.0458C62.7265 17.0458 63.7958 19.2439 63.7958 22.6387C63.7958 26.0334 62.7349 28.2315 61.08 28.2315Z" fill="#091E3D"/>
<path d="M67.8516 29.1056V28.7916C67.8516 27.6714 67.9364 27.0942 67.9364 27.0942L68.4287 27.6714C69.4556 27.5271 70.1091 26.3983 70.1091 23.8608V17.589C70.1091 14.0245 69.8545 13.2862 68.4287 12.5733L68.1741 12.429C68.1741 12.429 68.1486 12.2847 68.1486 12.1404L73.3341 10.0272H74.1318V23.8523C74.1318 26.3898 74.7853 27.23 75.7868 27.3743L76.0753 27.3998C76.0753 27.3998 76.1008 28.4691 76.1008 28.8086V29.1226L67.8516 29.0887V29.1056Z" fill="#091E3D"/>
<path d="M74.1326 10.0357V23.8608C74.1326 26.3983 74.7861 27.2385 75.7876 27.3828L76.0761 27.4083C76.0761 27.4083 76.1016 28.4776 76.1016 28.8171V29.1311L67.8524 29.0971V28.7831C67.8524 27.6629 67.9373 27.0858 67.9373 27.0858L68.4295 27.6629C69.4564 27.5186 70.1099 26.3898 70.1099 23.8523V17.5805C70.1099 14.016 69.8553 13.2777 68.4295 12.5648L68.1749 12.4205C68.1749 12.4205 68.1494 12.2762 68.1494 12.1319L73.3349 10.0187H74.1326M74.1326 9.93385H73.3349C73.3349 9.93385 73.3094 9.93385 73.2925 9.93385L68.107 12.0471C68.107 12.0471 68.0391 12.1065 68.0391 12.1489C68.0391 12.3017 68.0646 12.446 68.073 12.4544C68.073 12.4884 68.0985 12.5139 68.124 12.5308L68.3786 12.6751C69.7619 13.371 70.008 14.1009 70.008 17.5975V23.8693C70.008 26.1352 69.4903 27.3743 68.4804 27.561L68.0221 27.0264C68.0221 27.0264 67.9712 26.9924 67.9373 26.9924C67.9288 26.9924 67.9203 26.9924 67.9118 26.9924C67.8694 27.0009 67.8439 27.0348 67.8354 27.0773C67.8354 27.1027 67.7421 27.6798 67.7505 28.7916V29.1056C67.7505 29.165 67.8015 29.216 67.8609 29.216L76.1101 29.2499C76.1101 29.2499 76.1695 29.2414 76.1865 29.216C76.2034 29.199 76.2204 29.165 76.2204 29.1396V28.8256C76.2204 28.4861 76.195 27.4252 76.195 27.4083C76.195 27.3573 76.1525 27.3064 76.0931 27.3064L75.8046 27.281C75.0832 27.1791 74.2515 26.6954 74.2515 23.8693V10.0357C74.2515 9.97629 74.2005 9.92537 74.1411 9.92537L74.1326 9.93385Z" fill="#091E3D"/>
<path d="M81.1581 16.1377H81.9559V23.8608C81.9559 26.3983 82.6094 28.1042 83.6108 28.2485L83.8994 28.2739C83.8994 28.2739 83.9248 28.4776 83.9248 28.8171V29.1311H75.9727V28.8171C75.9727 28.4776 75.9981 27.4083 75.9981 27.4083L76.2527 27.3828C77.339 27.2385 77.9331 26.2541 77.9331 23.691C77.9331 20.1266 77.6785 19.3882 76.2527 18.6753L75.9981 18.531C75.9981 18.531 75.9727 18.3868 75.9727 18.2425L81.1581 16.1293V16.1377ZM77.5088 11.8604C77.5088 10.46 78.3659 9.57741 79.7323 9.57741C81.0987 9.57741 81.9304 10.46 81.9304 11.8604C81.9304 13.2607 81.0732 14.1433 79.7323 14.1433C78.3914 14.1433 77.5088 13.2607 77.5088 11.8604Z" fill="#091E3D"/>
<path d="M79.7333 9.58589C81.0742 9.58589 81.9314 10.4685 81.9314 11.8689C81.9314 13.2692 81.0742 14.1518 79.7333 14.1518C78.3924 14.1518 77.5097 13.2692 77.5097 11.8689C77.5097 10.4685 78.3669 9.58589 79.7333 9.58589ZM81.9568 16.1377V23.8608C81.9568 26.3983 82.6103 28.1042 83.6118 28.2485L83.9003 28.2739C83.9003 28.2739 83.9258 28.4776 83.9258 28.8171V29.1311H75.9736V28.8171C75.9736 28.4776 75.9991 27.4083 75.9991 27.4083L76.2537 27.3828C77.34 27.2385 77.9341 26.2541 77.9341 23.691C77.9341 20.1266 77.6795 19.3882 76.2537 18.6753L75.9991 18.531C75.9991 18.531 75.9736 18.3868 75.9736 18.2425L81.1591 16.1293H81.9568M79.7333 9.47556C78.316 9.47556 77.3994 10.4091 77.3994 11.8604C77.3994 13.3116 78.316 14.2537 79.7333 14.2537C81.1506 14.2537 82.0332 13.3116 82.0332 11.8604C82.0332 10.4091 81.1251 9.47556 79.7333 9.47556ZM81.9568 16.0274H81.1591C81.1591 16.0274 81.1336 16.0274 81.1166 16.0274L75.9312 18.1406C75.9312 18.1406 75.8633 18.2 75.8633 18.2425C75.8633 18.3952 75.8887 18.5395 75.8972 18.548C75.8972 18.5819 75.9227 18.6074 75.9481 18.6244L76.2028 18.7687C77.5861 19.4646 77.8322 20.1944 77.8322 23.691C77.8322 26.0249 77.34 27.1282 76.2452 27.2725L75.9906 27.2979C75.9397 27.2979 75.8972 27.3489 75.8972 27.3998C75.8972 27.4083 75.8718 28.4691 75.8718 28.8171V29.1311C75.8718 29.1905 75.9227 29.2414 75.9821 29.2414H83.9343C83.9937 29.2414 84.0446 29.1905 84.0446 29.1311V28.8171C84.0446 28.4691 84.0191 28.2654 84.0191 28.257C84.0191 28.206 83.9682 28.1721 83.9258 28.1636L83.6372 28.1381C82.7122 28.0023 82.0841 26.288 82.0841 23.8523V16.1293C82.0841 16.0698 82.0332 16.0189 81.9738 16.0189L81.9568 16.0274Z" fill="#091E3D"/>
<path d="M91.2596 15.9935C94.281 15.9935 96.3348 17.1052 96.4791 18.8705C96.4791 19.9823 95.7662 20.6952 94.7138 20.6952C93.5766 20.6952 92.8043 19.8974 92.6939 18.6414C92.6091 17.7333 91.8962 17.1562 90.8438 17.1562C89.104 17.1562 87.9922 18.9214 87.9922 21.6881C87.9922 24.7689 89.6471 27.3913 93.3219 27.0773C94.0094 27.0179 95.4352 26.3898 96.0547 24.9641L96.513 25.3629C95.1721 28.1551 92.0404 29.2669 90.1309 29.2669C86.2269 29.2669 83.7148 26.933 83.7148 23.2837C83.7148 18.8366 86.6513 15.985 91.2681 15.985L91.2596 15.9935Z" fill="#091E3D"/>
<path d="M91.2593 15.9935C94.2806 15.9935 96.3345 17.1052 96.4787 18.8705C96.4787 19.9823 95.7658 20.6952 94.7135 20.6952C93.5762 20.6952 92.8039 19.8974 92.6936 18.6414C92.6087 17.7333 91.8958 17.1562 90.8435 17.1562C89.1037 17.1562 87.9919 18.9214 87.9919 21.6881C87.9919 24.5991 89.4686 27.1027 92.736 27.1027C92.9227 27.1027 93.1179 27.1027 93.3216 27.0773C94.0091 27.0179 95.4348 26.3898 96.0544 24.9641L96.5127 25.3629C95.1718 28.1551 92.0401 29.2669 90.1306 29.2669C86.2266 29.2669 83.7145 26.933 83.7145 23.2837C83.7145 18.8366 86.651 15.985 91.2678 15.985M91.2593 15.8916C86.6085 15.8916 83.5957 18.8026 83.5957 23.3006C83.5957 27.0009 86.1587 29.3942 90.1221 29.3942C91.9637 29.3942 95.2057 28.3418 96.606 25.4308C96.623 25.3884 96.6145 25.3375 96.5806 25.3035L96.1223 24.9046C96.1223 24.9046 96.0798 24.8792 96.0544 24.8792C96.0544 24.8792 96.0374 24.8792 96.0289 24.8792C95.995 24.8792 95.9695 24.9131 95.9525 24.9386C95.3245 26.3729 93.8987 26.933 93.3047 26.9839C93.1095 27.0009 92.9143 27.0094 92.7275 27.0094C89.3073 27.0094 88.0937 24.2681 88.0937 21.7051C88.0937 19.1421 89.1716 17.2835 90.835 17.2835C91.8279 17.2835 92.4984 17.8096 92.5833 18.6668C92.7021 19.9908 93.5168 20.814 94.7135 20.814C95.8337 20.814 96.5891 20.0332 96.5891 18.879C96.4448 17.0628 94.3485 15.8916 91.2678 15.8916H91.2593Z" fill="#091E3D"/>
<path d="M90.851 30.5229C91.2244 29.7846 91.8779 29.4366 92.5908 29.4366C93.1339 29.4366 93.728 29.6403 94.2457 30.0052C96.2147 31.3716 97.8696 32.1694 99.3209 32.1694C101.29 32.1694 102.97 30.7691 104.795 27.4677L100.806 20.0841C99.4397 17.572 97.8696 15.8407 96.7833 15.6964L96.4947 15.671V14.8138H104.532V15.1278C104.532 15.671 104.591 15.671 104.303 15.6964C103.615 15.8407 104.048 17.5466 105.44 20.0841C106.008 21.1704 106.662 22.3077 107.239 23.4194L108.75 20.0841C109.921 17.5466 110.176 15.8407 109.437 15.6964C109.149 15.671 109.208 15.671 109.208 15.1278V14.8138H114.029V15.671L113.715 15.6964C112.628 15.8407 111.118 17.5805 109.836 20.0841L106.127 27.4083C104.014 32.1948 100.653 35.3859 96.5796 35.3859C95.2132 35.3859 93.7874 35.0125 92.2768 34.2487C90.7407 33.4509 90.3078 31.5414 90.851 30.5144V30.5229Z" fill="#091E3D"/>
<path d="M114.029 14.8138V15.671L113.715 15.6964C112.629 15.8407 111.118 17.5805 109.836 20.0841L106.128 27.4083C104.015 32.1948 100.654 35.3859 96.58 35.3859C95.2137 35.3859 93.7879 35.0125 92.2772 34.2487C90.7411 33.4509 90.3083 31.5414 90.8514 30.5144C91.2249 29.7761 91.8783 29.4281 92.5912 29.4281C93.1344 29.4281 93.7285 29.6318 94.2462 29.9967C96.2151 31.3631 97.87 32.1609 99.3213 32.1609C101.29 32.1609 102.971 30.7606 104.795 27.4592L100.806 20.0756C99.4401 17.5635 97.87 15.8322 96.7837 15.6879L96.4952 15.6625V14.8053H104.532V15.1193C104.532 15.6625 104.592 15.6625 104.303 15.6879C103.616 15.8322 104.048 17.5381 105.44 20.0756C106.009 21.1619 106.662 22.2992 107.24 23.411L108.75 20.0756C109.921 17.5381 110.176 15.8322 109.438 15.6879C109.149 15.6625 109.208 15.6625 109.208 15.1193V14.8053H114.029M114.029 14.7119H109.208C109.149 14.7119 109.098 14.7629 109.098 14.8223V15.1363C109.098 15.2296 109.098 15.2975 109.098 15.3654C109.098 15.6964 109.098 15.7813 109.429 15.8152C109.522 15.8322 109.607 15.8916 109.658 16.0019C109.938 16.5451 109.556 18.0982 108.657 20.0502L107.24 23.1818C106.951 22.6217 106.637 22.0446 106.331 21.4929C106.06 21.0007 105.797 20.5169 105.551 20.0502C104.235 17.6654 103.972 16.3754 104.159 15.968C104.201 15.8831 104.252 15.8322 104.337 15.8152C104.651 15.7813 104.66 15.6964 104.651 15.3654C104.651 15.306 104.651 15.2296 104.651 15.1363V14.8223C104.651 14.7629 104.6 14.7119 104.541 14.7119H96.5037C96.4443 14.7119 96.3933 14.7629 96.3933 14.8223V15.6794C96.3933 15.7389 96.4358 15.7813 96.4952 15.7898L96.7837 15.8152C97.8106 15.951 99.3552 17.6484 100.722 20.152L104.685 27.4846C102.92 30.6587 101.273 32.076 99.3383 32.076C98.0058 32.076 96.4612 31.4141 94.3225 29.9289C93.8048 29.5554 93.1768 29.3433 92.6082 29.3433C91.802 29.3433 91.1315 29.7591 90.775 30.489C90.495 31.0152 90.461 31.762 90.6902 32.4834C90.9533 33.3151 91.5049 33.9856 92.2518 34.3675C93.7709 35.1398 95.1967 35.5217 96.6055 35.5217C100.484 35.5217 103.998 32.5852 106.255 27.4762L109.955 20.152C111.228 17.6569 112.722 15.9595 113.749 15.8237L114.054 15.7983C114.114 15.7983 114.156 15.7473 114.156 15.6879V14.8308C114.156 14.7714 114.105 14.7204 114.046 14.7204L114.029 14.7119Z" fill="#091E3D"/>
<path d="M23.8044 9.58589V9.89991C23.8044 10.2394 23.779 10.4431 23.779 10.4431L23.4904 10.4685C22.4635 10.6128 21.8355 12.3187 21.8355 14.8562V22.5453C21.8355 25.0829 22.4635 26.7887 23.4904 26.933L23.779 26.9585C23.779 26.9585 23.8044 27.1537 23.8044 27.5016V27.8156H15.5977V27.5016C15.5977 27.1621 15.6231 26.9585 15.6231 26.9585L15.9117 26.933C16.9386 26.7887 17.5666 25.0829 17.5666 22.5453V14.8562C17.5666 12.3187 16.9386 10.6128 15.9117 10.4685L15.6231 10.4431C15.6231 10.4431 15.5977 10.2479 15.5977 9.89991V9.58589H23.7959H23.8044Z" fill="white"/>
<path d="M23.8047 9.58589V9.89991C23.8047 10.2394 23.7792 10.4431 23.7792 10.4431L23.4907 10.4685C22.4637 10.6128 21.8357 12.3187 21.8357 14.8562V22.5453C21.8357 25.0829 22.4637 26.7887 23.4907 26.933L23.7792 26.9585C23.7792 26.9585 23.8047 27.1537 23.8047 27.5016V27.8156H15.5979V27.5016C15.5979 27.1621 15.6234 26.9585 15.6234 26.9585L15.9119 26.933C16.9388 26.7887 17.5668 25.0829 17.5668 22.5453V14.8562C17.5668 12.3187 16.9388 10.6128 15.9119 10.4685L15.6234 10.4431C15.6234 10.4431 15.5979 10.2479 15.5979 9.89991V9.58589H23.7962M23.8047 9.25491H15.5979C15.4197 9.25491 15.2754 9.39918 15.2754 9.57741V9.89142C15.2754 10.2564 15.3093 10.4685 15.3093 10.477C15.3263 10.6213 15.4536 10.7401 15.5979 10.7571L15.8864 10.7825C16.6927 10.8929 17.2443 12.5308 17.2443 14.8477V22.5368C17.2443 24.8537 16.6927 26.4832 15.8695 26.602L15.5979 26.6275C15.4451 26.6444 15.3263 26.7548 15.3093 26.9075C15.3093 26.916 15.2754 27.1367 15.2754 27.4931V27.8071C15.2754 27.9854 15.4197 28.1296 15.5979 28.1296H23.7962C23.9744 28.1296 24.1187 27.9854 24.1187 27.8071V27.4931C24.1187 27.1282 24.0847 26.916 24.0847 26.9075C24.0678 26.7633 23.9405 26.6444 23.7962 26.6275L23.5076 26.602C22.7014 26.4917 22.1497 24.8537 22.1497 22.5368V14.8477C22.1497 12.5308 22.7014 10.9014 23.5246 10.7825L23.7962 10.7571C23.9489 10.7401 24.0678 10.6298 24.0847 10.477C24.0847 10.4685 24.1187 10.2479 24.1187 9.89142V9.57741C24.1187 9.39918 23.9744 9.25491 23.7962 9.25491H23.8047Z" fill="#091E3D"/>
<path d="M23.8042 26.9585L24.0588 26.933C25.1451 26.7887 25.7392 24.9386 25.7392 22.3501C25.7392 18.8196 25.4845 18.0812 24.0588 17.3683L23.8042 17.2241C23.8042 17.2241 23.7787 17.1137 23.7787 16.9355L28.9302 14.8308H29.728V16.7997C30.4663 15.7728 32.2655 14.695 34.5655 14.695C36.8654 14.695 37.6377 16.4008 37.6377 19.0827V24.2681C37.6377 26.6869 37.6971 27.3998 37.6971 27.6883C37.6971 28.9444 37.7226 31.7281 39.4878 31.7281C40.6251 31.7281 41.3974 30.5569 41.9915 29.9373C42.3055 29.5979 42.7298 29.4536 43.1626 29.4536C43.9604 29.4536 44.7582 29.9628 44.9024 30.7945C45.0976 32.3052 44.1641 33.2133 42.7128 33.5867C42.1103 33.731 41.4568 33.8158 40.8033 33.8158C39.4963 33.8158 38.1554 33.5018 37.154 32.8483C36.3817 32.3391 33.6234 30.9133 33.6234 26.585V19.524C33.6234 18.0982 32.9105 16.4772 31.7394 16.4772C31.1707 16.4772 30.4833 16.9016 29.7195 17.9879V22.5708C29.7195 25.1083 30.3475 26.8396 31.3405 26.9585L31.5951 26.9839V27.8411H23.7617V27.5271C23.7617 27.1876 23.7872 26.9839 23.7872 26.9839L23.8042 26.9585Z" fill="white"/>
<path d="M34.5735 14.678C36.8225 14.678 37.6458 16.3839 37.6458 19.0657V24.2512C37.6458 26.6699 37.7052 27.3828 37.7052 27.6714C37.7052 28.9274 37.7306 31.7111 39.4959 31.7111C40.6331 31.7111 41.4054 30.5399 41.9995 29.9204C42.3135 29.5809 42.7379 29.4366 43.1707 29.4366C43.9684 29.4366 44.7662 29.9458 44.9105 30.7775C45.1057 32.2882 44.1721 33.1963 42.7209 33.5697C42.1183 33.714 41.4648 33.7989 40.8113 33.7989C39.5044 33.7989 38.1635 33.4848 37.162 32.8314C36.3897 32.3221 33.6315 30.8964 33.6315 26.5681V19.507C33.6315 18.0812 32.9186 16.4602 31.7474 16.4602C31.1788 16.4602 30.4913 16.8846 29.7275 17.9709V22.5538C29.7275 25.0914 30.3556 26.8227 31.3485 26.9415L31.6031 26.9669V27.8241H23.7698V27.5101C23.7698 27.1706 23.7952 26.9669 23.7952 26.9669L24.0498 26.9415C25.1361 26.7972 25.7302 24.9471 25.7302 22.3586C25.7302 18.8281 25.4756 18.0897 24.0498 17.3768L23.7952 17.2325C23.7952 17.2325 23.7698 17.1222 23.7698 16.944L28.9213 14.8392H29.719V16.8082C30.4574 15.7813 32.2566 14.7035 34.5565 14.7035M34.5735 14.3555C32.63 14.3555 31.026 15.0854 30.0585 15.951V14.8223C30.0585 14.6441 29.9142 14.4998 29.736 14.4998H28.9383C28.9383 14.4998 28.8534 14.4998 28.8109 14.5252L23.6594 16.63C23.5406 16.6809 23.4558 16.7997 23.4558 16.9355C23.4558 17.1392 23.4897 17.2835 23.4897 17.3004C23.5152 17.3853 23.5661 17.4617 23.6509 17.5041L23.9056 17.6484C25.1361 18.2594 25.4162 18.7687 25.4162 22.3501C25.4162 24.7858 24.8561 26.5002 24.0159 26.6105L23.7698 26.636C23.6255 26.6529 23.5067 26.7633 23.4812 26.916C23.4812 26.9245 23.4473 27.1452 23.4473 27.5016V27.8156C23.4473 27.9939 23.5915 28.1381 23.7698 28.1381H31.6031C31.7813 28.1381 31.9256 27.9939 31.9256 27.8156V26.9585C31.9256 26.7887 31.7983 26.6529 31.6371 26.636L31.3825 26.6105C30.7375 26.5341 30.05 25.2356 30.05 22.5453V18.0642C30.6696 17.2241 31.2552 16.7742 31.7474 16.7742C32.664 16.7742 33.3005 18.2085 33.3005 19.4985V26.5596C33.3005 30.7606 35.8381 32.3731 36.7886 32.9756C36.8565 33.0181 36.9244 33.0605 36.9753 33.0944C37.9767 33.7564 39.3346 34.1214 40.8029 34.1214C41.4479 34.1214 42.1353 34.0365 42.7888 33.8837C44.5456 33.4339 45.4367 32.2882 45.233 30.7351C45.0463 29.6658 44.0618 29.1141 43.1707 29.1141C42.6106 29.1141 42.1098 29.3263 41.7619 29.7082C41.66 29.8185 41.5412 29.9543 41.4224 30.0901C40.9132 30.6757 40.2852 31.3971 39.4959 31.3971C38.1804 31.3971 38.0277 29.2754 38.0277 27.6798C38.0277 27.6035 38.0277 27.5016 38.0192 27.3489C38.0022 26.8991 37.9683 26.0589 37.9683 24.2681V19.0827C37.9683 15.9595 36.8225 14.3725 34.565 14.3725L34.5735 14.3555Z" fill="#091E3D"/>
<path d="M38.1133 27.4931C38.1133 27.1537 38.1387 26.95 38.1387 26.95L38.4273 26.9245C39.4542 26.7802 40.0822 25.0744 40.0822 22.5368V14.8477C40.0822 12.3102 39.4542 10.6043 38.4273 10.46L38.1387 10.4346C38.1387 10.4346 38.1133 10.2394 38.1133 9.89142V9.57741H47.3385C51.7516 9.57741 54.5693 11.6567 54.5693 14.8732C54.5693 18.0897 51.548 20.2878 46.7953 20.2878H44.5463V22.5368C44.5463 25.0744 45.1998 26.7802 46.2012 26.9245L46.4898 26.95C46.4898 26.95 46.5153 27.1452 46.5153 27.4931V27.8071H38.1133V27.4931ZM44.5463 19.1506H46.7953C48.7049 19.1506 49.9015 17.4702 49.9015 14.8817C49.9015 12.2932 48.9085 10.7231 47.3385 10.7231H44.5463V19.1506Z" fill="white"/>
<path d="M47.3387 9.58589C51.7519 9.58589 54.5695 11.6652 54.5695 14.8817C54.5695 18.0982 51.5482 20.2963 46.7956 20.2963H44.5465V22.5453C44.5465 25.0829 45.2 26.7887 46.2015 26.933L46.49 26.9585C46.49 26.9585 46.5155 27.1537 46.5155 27.5016V27.8156H38.1135V27.5016C38.1135 27.1621 38.139 26.9585 38.139 26.9585L38.4275 26.933C39.4544 26.7887 40.0825 25.0829 40.0825 22.5453V14.8562C40.0825 12.3187 39.4544 10.6128 38.4275 10.4685L38.139 10.4431C38.139 10.4431 38.1135 10.2479 38.1135 9.89991V9.58589H47.3387ZM44.5465 19.1506H46.7956C48.7051 19.1506 49.9017 17.4702 49.9017 14.8817C49.9017 12.2932 48.9088 10.7231 47.3387 10.7231H44.5465V19.1506ZM47.3387 9.25491H38.1135C37.9353 9.25491 37.791 9.39918 37.791 9.57741V9.89142C37.791 10.2564 37.825 10.4685 37.825 10.477C37.8419 10.6213 37.9692 10.7401 38.1135 10.7571L38.4021 10.7825C39.2083 10.8929 39.76 12.5308 39.76 14.8477V22.5368C39.76 24.8537 39.2083 26.4832 38.3851 26.602L38.1135 26.6275C37.9608 26.6444 37.8419 26.7548 37.825 26.9075C37.825 26.916 37.791 27.1367 37.791 27.4931V27.8071C37.791 27.9854 37.9353 28.1296 38.1135 28.1296H46.5155C46.6937 28.1296 46.838 27.9854 46.838 27.8071V27.4931C46.838 27.1282 46.804 26.916 46.804 26.9075C46.7871 26.7633 46.6598 26.6444 46.5155 26.6275L46.2269 26.602C45.5819 26.5087 44.869 25.1932 44.869 22.5368V20.6103H46.7956C51.7179 20.6103 54.892 18.3613 54.892 14.8732C54.892 11.3851 51.9216 9.24642 47.3302 9.24642L47.3387 9.25491ZM44.869 11.0456H47.3387C48.6966 11.0456 49.5792 12.5478 49.5792 14.8817C49.5792 17.2156 48.5184 18.8281 46.804 18.8281H44.8775V11.0456H44.869Z" fill="#091E3D"/>
<path d="M53.8301 21.3147C53.8301 17.275 56.6222 14.678 61.0354 14.678C65.4486 14.678 68.1813 17.2665 68.1813 21.3147C68.1813 25.3629 65.3892 27.9514 61.0354 27.9514C56.6817 27.9514 53.8301 25.3629 53.8301 21.3147ZM58.2093 21.3147C58.2093 24.7858 59.3211 27.0094 61.0269 27.0094C62.7328 27.0094 63.8446 24.7858 63.8446 21.3147C63.8446 17.8436 62.7328 15.62 61.0269 15.62C59.3211 15.62 58.2093 17.8436 58.2093 21.3147Z" fill="white"/>
<path d="M61.0356 14.678C65.3894 14.678 68.1816 17.2665 68.1816 21.3147C68.1816 25.3629 65.3894 27.9514 61.0356 27.9514C56.6819 27.9514 53.8303 25.3629 53.8303 21.3147C53.8303 17.2665 56.6225 14.678 61.0356 14.678ZM61.0356 27.0094C62.7415 27.0094 63.8533 24.7858 63.8533 21.3147C63.8533 17.8436 62.7415 15.62 61.0356 15.62C59.3298 15.62 58.218 17.8436 58.218 21.3147C58.218 24.7858 59.3298 27.0094 61.0356 27.0094ZM61.0356 14.3555C56.4612 14.3555 53.5078 17.0883 53.5078 21.3147C53.5078 25.5412 56.4612 28.2739 61.0356 28.2739C65.61 28.2739 68.5126 25.5412 68.5126 21.3147C68.5126 17.0883 65.5761 14.3555 61.0356 14.3555ZM61.0356 26.6869C59.542 26.6869 58.5405 24.5312 58.5405 21.3147C58.5405 18.0982 59.542 15.9425 61.0356 15.9425C62.5293 15.9425 63.5308 18.0982 63.5308 21.3147C63.5308 24.5312 62.5293 26.6869 61.0356 26.6869Z" fill="#091E3D"/>
<path d="M68.0977 27.8071V27.4931C68.0977 27.1537 68.1231 26.95 68.1231 26.95L68.3777 26.9245C69.4046 26.7802 70.0581 25.0744 70.0581 22.5368V16.2735C70.0581 12.7175 69.8035 11.9707 68.3777 11.2578L68.1231 11.1135C68.1231 11.1135 68.0977 10.9692 68.0977 10.825L73.2831 8.72024H74.0809V22.5283C74.0809 25.0659 74.7344 26.7717 75.7358 26.916L76.0244 26.9415C76.0244 26.9415 76.0498 27.1367 76.0498 27.4846V27.7987H68.1061L68.0977 27.8071Z" fill="white"/>
<path d="M74.072 8.72872V22.5368C74.072 25.0744 74.7255 26.7802 75.727 26.9245L76.0155 26.95C76.0155 26.95 76.041 27.1452 76.041 27.4931V27.8071H68.0973V27.4931C68.0973 27.1537 68.1227 26.95 68.1227 26.95L68.3774 26.9245C69.4043 26.7802 70.0577 25.0744 70.0577 22.5368V16.2735C70.0577 12.7175 69.8031 11.9707 68.3774 11.2578L68.1227 11.1135C68.1227 11.1135 68.0973 10.9692 68.0973 10.825L73.2827 8.72024H74.0805M74.072 8.40622H73.2743C73.2743 8.40622 73.1894 8.40622 73.1554 8.43168L67.97 10.5364C67.8512 10.5873 67.7663 10.7062 67.7663 10.8419C67.7663 11.0117 67.8002 11.1729 67.8002 11.1899C67.8172 11.2833 67.8766 11.3681 67.9615 11.4106L68.2161 11.5548C69.4467 12.1659 69.7268 12.6751 69.7268 16.282V22.5453C69.7268 24.8198 69.1497 26.4917 68.3264 26.6105L68.0803 26.636C67.936 26.6529 67.8172 26.7633 67.7918 26.916C67.7918 26.9245 67.7578 27.1452 67.7578 27.5016V27.8156C67.7578 27.9939 67.9021 28.1381 68.0803 28.1381H76.024C76.2022 28.1381 76.3465 27.9939 76.3465 27.8156V27.5016C76.3465 27.1367 76.3125 26.9245 76.3125 26.916C76.2956 26.7717 76.1683 26.6529 76.024 26.636L75.7354 26.6105C75.0904 26.5171 74.3775 25.2017 74.3775 22.5453V8.72872C74.3775 8.5505 74.2333 8.40622 74.0551 8.40622H74.072Z" fill="#091E3D"/>
<path d="M81.0988 14.8223H81.8966V22.5368C81.8966 25.0744 82.5501 26.7802 83.5515 26.9245L83.8401 26.95C83.8401 26.95 83.8656 27.1452 83.8656 27.4931V27.8071H75.9219V27.4931C75.9219 27.4931 75.9219 27.4337 75.9219 27.3998C75.9219 27.1112 75.9473 26.95 75.9473 26.95L76.2019 26.9245C77.2883 26.7802 77.8823 24.9301 77.8823 22.3671C77.8823 18.8111 77.6277 18.0642 76.2019 17.3514L75.9473 17.2071C75.9473 17.2071 75.9219 17.0628 75.9219 16.9185L81.1073 14.8138L81.0988 14.8223ZM77.4495 10.5534C77.4495 9.16155 78.3067 8.27892 79.6731 8.27892C81.0394 8.27892 81.8627 9.16155 81.8627 10.5534C81.8627 11.9452 81.0055 12.8279 79.6731 12.8279C78.3406 12.8279 77.4495 11.9452 77.4495 10.5534Z" fill="white"/>
<path d="M79.6727 8.27043C81.0136 8.27043 81.8623 9.15306 81.8623 10.5449C81.8623 11.9367 81.0051 12.8194 79.6727 12.8194C78.3403 12.8194 77.4491 11.9367 77.4491 10.5449C77.4491 9.15306 78.3063 8.27043 79.6727 8.27043ZM81.8962 14.8223V22.5368C81.8962 25.0744 82.5497 26.7802 83.5512 26.9245L83.8397 26.95C83.8397 26.95 83.8652 27.1452 83.8652 27.4931V27.8071H75.9215V27.4931C75.9215 27.4931 75.9215 27.4337 75.9215 27.3998C75.9215 27.1112 75.947 26.95 75.947 26.95L76.2016 26.9245C77.2879 26.7802 77.882 24.9301 77.882 22.3671C77.882 18.8111 77.6274 18.0642 76.2016 17.3514L75.947 17.2071C75.947 17.2071 75.9215 17.0628 75.9215 16.9185L81.107 14.8138H81.9047M79.6727 7.94793C78.1281 7.94793 77.1266 8.96635 77.1266 10.5534C77.1266 12.1404 78.1281 13.1589 79.6727 13.1589C81.2173 13.1589 82.1933 12.1404 82.1933 10.5534C82.1933 8.96635 81.2088 7.94793 79.6727 7.94793ZM81.8962 14.4998H81.0985C81.0985 14.4998 81.0136 14.4998 80.9797 14.5252L75.7942 16.63C75.6754 16.6809 75.5905 16.7997 75.5905 16.9355C75.5905 17.1052 75.6245 17.2665 75.6245 17.2835C75.6414 17.3768 75.7009 17.4617 75.7857 17.5041L76.0403 17.6484C77.2709 18.2594 77.551 18.7687 77.551 22.3756C77.551 24.7943 76.9909 26.5002 76.1507 26.6105L75.9045 26.636C75.7603 26.6529 75.6414 26.7633 75.616 26.916C75.616 26.916 75.5905 27.1027 75.582 27.4083V27.5016V27.8156C75.582 27.9939 75.7263 28.1381 75.9045 28.1381H83.8482C84.0264 28.1381 84.1707 27.9939 84.1707 27.8156V27.5016C84.1707 27.1367 84.1368 26.9245 84.1368 26.916C84.1198 26.7717 83.9925 26.6529 83.8482 26.636L83.5597 26.6105C82.9147 26.5171 82.2018 25.2017 82.2018 22.5453V14.8308C82.2018 14.6525 82.0575 14.5083 81.8793 14.5083L81.8962 14.4998Z" fill="#091E3D"/>
<path d="M91.1893 14.678C94.2106 14.678 96.256 15.7898 96.4003 17.555C96.4003 18.6668 95.6874 19.3797 94.635 19.3797C93.4978 19.3797 92.7255 18.5819 92.6151 17.3259C92.5303 16.4178 91.8174 15.8492 90.765 15.8492C89.0252 15.8492 87.9134 17.6144 87.9134 20.3812C87.9134 23.4534 89.5684 26.0758 93.2432 25.7618C93.9221 25.7024 95.3479 25.0744 95.9759 23.6571L96.4342 24.056C95.0933 26.8481 91.9616 27.9599 90.0521 27.9599C86.1482 27.9599 83.6445 25.626 83.6445 21.9767C83.6445 17.5381 86.581 14.6865 91.1893 14.6865V14.678Z" fill="white"/>
<path d="M91.1902 14.678C94.2116 14.678 96.2569 15.7898 96.4012 17.555C96.4012 18.6668 95.6883 19.3797 94.6359 19.3797C93.4987 19.3797 92.7264 18.5819 92.616 17.3259C92.5312 16.4178 91.8183 15.8492 90.7659 15.8492C89.0261 15.8492 87.9143 17.6144 87.9143 20.3812C87.9143 23.2921 89.391 25.7873 92.6585 25.7873C92.8452 25.7873 93.0404 25.7873 93.2441 25.7618C93.923 25.7024 95.3488 25.0744 95.9768 23.6571L96.4351 24.056C95.0942 26.8481 91.9625 27.9599 90.053 27.9599C86.1491 27.9599 83.6454 25.626 83.6454 21.9767C83.6454 17.5381 86.5819 14.6865 91.1902 14.6865M91.1902 14.3555C86.4121 14.3555 83.3145 17.3429 83.3145 21.9682C83.3145 25.7958 85.9539 28.2739 90.0445 28.2739C91.9371 28.2739 95.2809 27.1876 96.7152 24.1833C96.7746 24.0475 96.7491 23.8947 96.6388 23.8014L96.1805 23.4025C96.1211 23.3516 96.0447 23.3261 95.9683 23.3261C95.9429 23.3261 95.9174 23.3261 95.9004 23.3261C95.7986 23.3516 95.7137 23.4194 95.6713 23.5128C95.0857 24.8368 93.7363 25.3799 93.2101 25.4308C93.0149 25.4478 92.8367 25.4563 92.65 25.4563C89.391 25.4563 88.2368 22.8339 88.2368 20.3727C88.2368 17.9115 89.2298 16.1717 90.7574 16.1717C91.64 16.1717 92.2172 16.613 92.285 17.3598C92.4123 18.7856 93.3374 19.7022 94.6274 19.7022C95.9174 19.7022 96.7152 18.8366 96.7152 17.555C96.5624 15.6031 94.3813 14.3555 91.1818 14.3555H91.1902Z" fill="#091E3D"/>
<path d="M90.4181 29.4112C90.7915 28.6728 91.445 28.3248 92.1579 28.3248C92.701 28.3248 93.2951 28.52 93.8128 28.8935C95.7818 30.2598 97.4282 31.0576 98.8795 31.0576C100.848 31.0576 102.529 29.6658 104.345 26.3559L100.356 18.9808C98.9898 16.4772 97.4197 14.7374 96.3419 14.5931L96.0533 14.5677V13.7105H104.082V14.0245C104.082 14.5677 104.141 14.5677 103.853 14.5931C103.165 14.7374 103.598 16.4433 104.99 18.9808C105.559 20.0671 106.212 21.2044 106.781 22.3162L108.291 18.9808C109.463 16.4433 109.717 14.7374 108.979 14.5931C108.69 14.5677 108.75 14.5677 108.75 14.0245V13.7105H113.765V14.5677L113.248 14.5931C112.161 14.7374 110.659 16.4687 109.378 18.9808L105.677 26.2965C103.573 31.0831 100.212 34.2741 96.1382 34.2741C94.7718 34.2741 93.346 33.9007 91.8354 33.1369C90.2993 32.3391 89.8664 30.4296 90.4096 29.4027L90.4181 29.4112Z" fill="white"/>
<path d="M113.774 13.719V14.5762L113.257 14.6016C112.17 14.7459 110.668 16.4772 109.387 18.9893L105.686 26.305C103.582 31.0916 100.221 34.2826 96.1473 34.2826C94.7809 34.2826 93.3551 33.9092 91.8444 33.1454C90.3083 32.3476 89.8755 30.4381 90.4186 29.4112C90.7921 28.6728 91.4455 28.3248 92.1584 28.3248C92.7016 28.3248 93.2957 28.52 93.8134 28.8935C95.7823 30.2598 97.4288 31.0576 98.88 31.0576C100.849 31.0576 102.529 29.6658 104.346 26.3559L100.357 18.9808C98.9904 16.4772 97.4203 14.7374 96.3425 14.5931L96.0539 14.5677V13.7105H104.082V14.0245C104.082 14.5677 104.142 14.5677 103.853 14.5931C103.166 14.7374 103.599 16.4433 104.991 18.9808C105.559 20.0671 106.213 21.2044 106.781 22.3162L108.292 18.9808C109.463 16.4433 109.718 14.7374 108.979 14.5931C108.691 14.5677 108.75 14.5677 108.75 14.0245V13.7105H113.766M113.774 13.3965H108.759C108.58 13.3965 108.436 13.5408 108.436 13.719V14.033C108.436 14.1179 108.436 14.1942 108.436 14.2537C108.436 14.6271 108.462 14.8732 108.962 14.9241C108.962 14.9241 108.988 14.9326 109.022 14.992C109.209 15.3569 109.056 16.5875 108.02 18.845L106.79 21.5693C106.561 21.1365 106.314 20.6952 106.085 20.2708C105.822 19.7871 105.551 19.3033 105.305 18.8281C103.938 16.3499 103.794 15.2212 103.921 14.9411C104.413 14.8647 104.447 14.6186 104.439 14.2452C104.439 14.1858 104.439 14.1094 104.439 14.0245V13.7105C104.439 13.5323 104.295 13.388 104.116 13.388H96.0879C95.9096 13.388 95.7654 13.5323 95.7654 13.7105V14.5677C95.7654 14.7374 95.8927 14.8732 96.0624 14.8902L96.3509 14.9156C97.1317 15.0175 98.6 16.3584 100.111 19.1336L104.015 26.3474C102.317 29.3687 100.739 30.7266 98.914 30.7266C97.6494 30.7266 96.0963 30.0562 94.034 28.6219C93.4824 28.223 92.8119 27.9939 92.1924 27.9939C91.3013 27.9939 90.5629 28.4521 90.164 29.2584C89.8585 29.8355 89.8246 30.6417 90.0622 31.4141C90.3423 32.2967 90.9279 33.0181 91.7256 33.4254C93.2787 34.2147 94.73 34.6051 96.1727 34.6051C100.136 34.6051 103.726 31.6262 106.009 26.4408L109.701 19.1336C111.118 16.3669 112.544 15.026 113.325 14.9241L113.817 14.8987C113.987 14.8902 114.122 14.7459 114.122 14.5762V13.719C114.122 13.5408 113.978 13.3965 113.8 13.3965H113.774Z" fill="#091E3D"/>
</g>
<defs>
<clipPath id="clip0_207_3732">
<rect width="98.8632" height="28.0575" fill="white" transform="translate(15.2754 7.94793)"/>
</clipPath>
</defs>
</svg>
