<svg width="24" height="24" viewBox="0 0 24 24" fill="none" xmlns="http://www.w3.org/2000/svg">
<path d="M1.70391 16.8633C1.89141 16.207 2.26641 15.5977 2.73516 15.1289L16.9852 0.878906C18.157 -0.292969 20.0789 -0.292969 21.2508 0.878906L23.0789 2.70703C23.2195 2.84766 23.3602 3.03516 23.4539 3.17578C24.2508 4.34766 24.1102 5.94141 23.0789 6.97266L8.82891 21.2227C8.78203 21.2695 8.68828 21.3164 8.64141 21.4102C8.17266 21.7852 7.65703 22.0664 7.09453 22.2539L3.43828 23.332L1.42266 23.9414C1.04766 24.0352 0.625781 23.9414 0.344531 23.6133C0.0164062 23.332 -0.0773437 22.9102 0.0632813 22.5352L0.625781 20.5195L1.70391 16.8633ZM3.86016 17.5195L3.53203 18.5977L2.78203 21.1758L5.36016 20.4258L6.43828 20.0977C6.76641 20.0039 7.00078 19.8633 7.23516 19.6289L17.9695 8.89453L15.0633 5.98828L4.32891 16.7227C4.28203 16.7227 4.28203 16.7695 4.23516 16.8164C4.04766 17.0039 3.95391 17.2383 3.86016 17.5195Z" fill="#868BDE"/>
</svg>
