<svg width="25" height="22" viewBox="0 0 25 22" fill="none" xmlns="http://www.w3.org/2000/svg">
<path d="M7.96875 16.5469C9.1875 17.0156 10.5938 17.25 12.0938 17.25C17.9062 17.25 21.8438 13.5 21.8438 9.75C21.8438 6.04688 17.9062 2.25 12.0938 2.25C6.23438 2.25 2.34375 6.04688 2.34375 9.75C2.34375 11.25 2.90625 12.7031 3.98438 13.9688C4.40625 14.3906 4.59375 15 4.54688 15.6094C4.5 16.4531 4.26562 17.25 4.03125 17.9062C4.82812 17.5781 5.48438 17.1562 5.85938 16.875C6.46875 16.4062 7.26562 16.3125 7.96875 16.5469ZM1.3125 18.375C1.78125 17.625 2.20312 16.5938 2.29688 15.4219C0.890625 13.8281 0.09375 11.9062 0.09375 9.75C0.09375 4.40625 5.4375 0 12.0938 0C18.7031 0 24.0938 4.40625 24.0938 9.75C24.0938 15.1406 18.7031 19.5 12.0938 19.5C10.3594 19.5 8.71875 19.2188 7.21875 18.7031C6.65625 19.0781 5.71875 19.6406 4.64062 20.1094C3.9375 20.4375 3.14062 20.7188 2.29688 20.8594C2.29688 20.8594 2.25 20.9062 2.20312 20.9062C2.01562 20.9531 1.78125 20.9531 1.59375 21H1.54688C1.3125 21 1.07812 21.0469 0.84375 21.0469C0.515625 21.0469 0.234375 20.8594 0.140625 20.5781C0 20.2969 0.09375 19.9688 0.28125 19.7344C0.46875 19.5469 0.65625 19.3125 0.84375 19.125C0.890625 18.9844 0.984375 18.8906 1.03125 18.7969L1.07812 18.75C1.17188 18.6562 1.21875 18.5156 1.3125 18.375ZM16.0312 5.76562V5.8125C16.7344 6.46875 16.7344 7.59375 16.0312 8.29688L15.3281 9L12.8438 6.46875L13.5469 5.76562C14.25 5.10938 15.375 5.10938 16.0312 5.76562ZM8.4375 10.9219L11.8125 7.54688L14.2969 10.0312L10.9219 13.4062C10.7344 13.5938 10.5 13.7344 10.2188 13.8281L8.48438 14.25C8.25 14.2969 7.96875 14.25 7.78125 14.0625C7.59375 13.875 7.54688 13.5938 7.59375 13.3125L8.01562 11.625C8.10938 11.3438 8.25 11.1094 8.4375 10.9219Z" fill="#A27FC1"/>
</svg>
